<svg xmlns="http://www.w3.org/2000/svg" xmlns:xlink="http://www.w3.org/1999/xlink" id="Layer_2_00000119834746301764261400000009627316836760158855_" x="0px" y="0px" viewBox="0 0 589 134.3" style="enable-background:new 0 0 589 134.3;" xml:space="preserve"><style type="text/css">	.st0{fill:#ED2D30;}	.st1{fill:#161821;}	.st2{enable-background:new    ;}</style><g id="Layer_2_00000001661853814100933690000004047867757745806517_">	<g id="Layer_6_00000057140576977657956110000017590546779437584028_">		<polygon class="st0" points="78,4.6 78,24.3 109.7,24.4 109.7,56.6 129.8,56.7 129.8,4.6   "></polygon>		<circle class="st1" cx="64.8" cy="71.6" r="15.4"></circle>		<path class="st1" d="M65.1,23.8c-25,0-45.3,20.3-45.4,45.3S40,114.4,65,114.4s45.3-20.3,45.4-45.3l0,0h19.8   c0,36-29.2,65.1-65.1,65S0,105,0,69S29.2,4,65.1,4l0,0"></path>		<g class="st2">			<path class="st1" d="M393.5,3.7h18.2l-0.1,76.9h-18.2v-5.1c-3.7,4.4-8.9,6.6-15.6,6.6c-7.3,0-13.5-2.8-18.4-8.3    S352,61.4,352,53.1s2.5-15.2,7.4-20.7s11.1-8.3,18.4-8.3c6.7,0,11.9,2.2,15.6,6.6L393.5,3.7z M373.5,61.8    c2.1,2.2,4.9,3.3,8.3,3.3s6.2-1.1,8.4-3.3c2.1-2.2,3.2-5.1,3.2-8.7c0-3.6-1.1-6.5-3.2-8.7s-4.9-3.3-8.3-3.3s-6.2,1.1-8.4,3.3    c-2.1,2.2-3.2,5.1-3.2,8.7C370.4,56.7,371.4,59.6,373.5,61.8z"></path>			<path class="st1" d="M460.9,25.7h18.2v54.9h-18.2v-5.1c-3.7,4.4-8.9,6.6-15.6,6.6c-7.3,0-13.5-2.8-18.4-8.3s-7.4-12.4-7.4-20.7    s2.5-15.2,7.4-20.7s11.1-8.3,18.4-8.3c6.7,0,11.9,2.2,15.6,6.6V25.7z M441,61.8c2.1,2.2,4.9,3.3,8.3,3.3s6.2-1.1,8.4-3.3    c2.1-2.2,3.2-5.1,3.2-8.7c0-3.6-1.1-6.5-3.2-8.7s-4.9-3.3-8.3-3.3s-6.2,1.1-8.4,3.3c-2.1,2.2-3.2,5.1-3.2,8.7    S438.9,59.6,441,61.8z"></path>		</g>		<g class="st2">			<path class="st1" d="M526.3,43.2h-11.4v15.9c0,2.4,0.9,3.9,2.6,4.5c1.8,0.6,4.7,0.8,8.8,0.6v16.5c-10.9,1.3-18.6,0.3-23-3    s-6.6-9.4-6.6-18.1V43.2h-8.2V25.7h8.2v-9.9l18.2-5.5v15.4h11.4L526.3,43.2z"></path>		</g>		<g class="st2">			<path class="st1" d="M570.8,25.8H589v54.9h-18.2v-5.1c-3.7,4.4-8.9,6.6-15.6,6.6c-7.3,0-13.5-2.8-18.4-8.3s-7.4-12.4-7.4-20.7    s2.5-15.2,7.4-20.7s11.1-8.3,18.4-8.3c6.7,0,11.9,2.2,15.6,6.6V25.8z M550.9,61.9c2.1,2.2,4.9,3.3,8.3,3.3c3.4,0,6.2-1.1,8.4-3.3    c2.1-2.2,3.2-5.1,3.2-8.7c0-3.6-1.1-6.5-3.2-8.7c-2.1-2.2-4.9-3.3-8.3-3.3c-3.4,0-6.2,1.1-8.4,3.3c-2.1,2.2-3.2,5.1-3.2,8.7    C547.7,56.8,548.7,59.7,550.9,61.9z"></path>		</g>		<g>			<g>				<path class="st1" d="M199.6,3.5h19.6l-0.1,76.9h-19.6V50.8h-21.6v29.6h-19.7l0.1-76.9H178V32h21.6V3.5z"></path>			</g>		</g>		<g class="st2">			<path class="st0" d="M269.4,25.6h18.2v54.9h-18.2v-5.1c-3.7,4.4-8.9,6.6-15.6,6.6c-7.3,0-13.5-2.8-18.4-8.3S228,61.3,228,53    s2.5-15.2,7.4-20.7s11.1-8.3,18.4-8.3c6.7,0,11.9,2.2,15.6,6.6V25.6z M249.5,61.7c2.1,2.2,4.9,3.3,8.3,3.3s6.2-1.1,8.4-3.3    c2.1-2.2,3.2-5.1,3.2-8.7c0-3.6-1.1-6.5-3.2-8.7s-4.9-3.3-8.3-3.3s-6.2,1.1-8.4,3.3c-2.1,2.2-3.2,5.1-3.2,8.7    C246.3,56.6,247.3,59.5,249.5,61.7z"></path>			<path class="st0" d="M314.7,18c-2.1,2.1-4.6,3.1-7.4,3.1c-2.9,0-5.3-1-7.4-3.1s-3.1-4.6-3.1-7.4c0-2.9,1-5.3,3.1-7.4    c2.1-2,4.6-3.1,7.4-3.1c2.9,0,5.3,1,7.4,3.1s3.1,4.5,3.1,7.4C317.8,13.4,316.8,15.9,314.7,18z M298.1,80.5V25.6h18.2v54.9H298.1z    "></path>			<path class="st0" d="M337.6,82.1c-3.2,0-6-1.1-8.2-3.4c-2.2-2.2-3.3-4.9-3.3-8.1c0-3.1,1.1-5.8,3.4-8.1c2.3-2.2,5-3.3,8.1-3.3    s5.8,1.1,8.1,3.4c2.2,2.2,3.3,4.9,3.3,8.1c0,3.2-1.1,5.8-3.4,8.1C343.4,81,340.7,82.1,337.6,82.1z"></path>		</g>	</g></g></svg>